<?xml version="1.0" encoding="utf-8"?>
<!-- Generator: Adobe Illustrator 12.0.1, SVG Export Plug-In . SVG Version: 6.00 Build 51448)  -->
<!DOCTYPE svg PUBLIC "-//W3C//DTD SVG 1.1//EN" "http://www.w3.org/Graphics/SVG/1.1/DTD/svg11.dtd" [
	<!ENTITY ns_svg "http://www.w3.org/2000/svg">
	<!ENTITY ns_xlink "http://www.w3.org/1999/xlink">
]>
<svg  version="1.1" xmlns="&ns_svg;" xmlns:xlink="&ns_xlink;" width="334.04" height="163.787" viewBox="0 0 334.04 163.787"
	 overflow="visible" enable-background="new 0 0 334.04 163.787" xml:space="preserve">

<g id="Lager_1">
	<g>
		<g>
			<path style="fill:#FFFFFF;" d="M49.324,76.561c-1.26-0.436-2.432-0.654-3.516-0.654c-1.889,0-3.445,0.714-4.671,2.142
				c-1.227,1.428-1.839,3.233-1.839,5.417c0,0.584,0.041,1.189,0.125,1.816h7.125v5.25h-7.125v29.812h-6.188V90.531h-5.125v-5.25
				h5.098c0-4.455,1.1-7.955,3.3-10.498c2.199-2.543,5.107-3.814,8.724-3.814c1.808,0,3.746,0.329,5.816,0.987L49.324,76.561z"/>
			<path style="fill:#FFFFFF;" d="M73.02,116.281c-2.486,3.125-6.291,4.688-11.414,4.688c-2.748,0-5.13-0.997-7.146-2.992
				c-2.018-1.995-3.025-4.476-3.025-7.441c0-3.555,1.554-6.559,4.661-9.012s7.07-3.68,11.891-3.68c1.308,0,2.79,0.292,4.448,0.875
				c0-5.666-2.532-8.5-7.597-8.5c-3.886,0-6.876,1.042-8.972,3.125l-2.619-5.188c1.177-0.959,2.807-1.782,4.889-2.47
				c2.082-0.687,4.071-1.03,5.968-1.03c5.079,0,8.769,1.155,11.068,3.466s3.45,5.983,3.45,11.019v12.556
				c0,3.074,0.916,5.123,2.75,6.147v3.125c-2.523,0-4.41-0.363-5.66-1.089C74.46,119.153,73.562,117.954,73.02,116.281z
				 M72.434,103.156c-1.967-0.458-3.343-0.688-4.129-0.688c-3.146,0-5.714,0.805-7.702,2.413s-2.981,3.51-2.981,5.705
				c0,3.63,2.151,5.444,6.456,5.444c3.146,0,5.931-1.479,8.356-4.438V103.156z"/>
			<path style="fill:#FFFFFF;" d="M113.129,88.156l-3.103,4.375c-0.639-0.626-1.766-1.22-3.383-1.782c-1.617-0.562-3.206-0.843-4.769-0.843
				c-3.41,0-6.116,1.181-8.118,3.541s-3.003,5.597-3.003,9.708c0,4.09,1.014,7.207,3.042,9.35c2.027,2.143,4.841,3.214,8.439,3.214
				c2.791,0,5.604-1.083,8.44-3.25l2.453,5.25c-3.34,2.167-7.475,3.25-12.406,3.25c-4.779,0-8.729-1.602-11.851-4.805
				s-4.681-7.539-4.681-13.009c0-5.578,1.631-10.056,4.895-13.433c3.263-3.377,7.729-5.066,13.397-5.066
				c1.823,0,3.801,0.382,5.933,1.146C110.547,86.565,112.118,87.35,113.129,88.156z"/>
			<path style="fill:#FFFFFF;" d="M119.921,90.219h-4.062v-4.938h4.062v-7.307l6.188-2.381v9.688h9.625v4.938h-9.625v17.37c0,2.939,0.495,5.029,1.486,6.27
				s2.588,1.86,4.789,1.86c1.59,0,3.235-0.396,4.935-1.188l0.915,5.457c-2.568,0.653-5.386,0.98-8.454,0.98
				c-2.764,0-5.098-1.029-7.002-3.088s-2.856-4.656-2.856-7.794V90.219z"/>
			<path style="fill:#FFFFFF;" d="M140.043,102.73c0-5.403,1.458-9.767,4.374-13.09c2.916-3.322,6.755-4.984,11.518-4.984
				c5.023,0,8.923,1.597,11.697,4.788c2.773,3.192,4.161,7.621,4.161,13.286c0,5.645-1.42,10.095-4.26,13.353
				s-6.706,4.886-11.599,4.886c-5.003,0-8.902-1.645-11.698-4.936C141.44,112.743,140.043,108.309,140.043,102.73z M146.605,102.73
				c0,8.784,3.109,13.176,9.329,13.176c2.902,0,5.177-1.177,6.824-3.53s2.472-5.569,2.472-9.646c0-8.674-3.099-13.012-9.296-13.012
				c-2.838,0-5.102,1.155-6.793,3.466S146.605,98.677,146.605,102.73z"/>
			<path style="fill:#FFFFFF;" d="M195.403,91.313c-1.354-0.938-2.72-1.407-4.095-1.407c-2.206,0-4.134,1.013-5.782,3.038s-2.473,4.465-2.473,7.318v20.081
				h-6.188V85.281h6.188v5.625c2.271-4.166,5.646-6.25,10.122-6.25c1.113,0,2.719,0.197,4.815,0.591L195.403,91.313z"/>
		</g>
	</g>
	<g>
		<path fill="none" d="M206.768,70.336c10.082-8.631,32.08-28.873,39.039-43.478c0,0,0.128,0.895,0.255,1.79
			c-20.58,30.092-36.259,88.062-35.082,119.842"/>
		<path style="fill:#FFFFFF;" d="M208.491,75.641c1.282-0.892,2.688-1.321,4.064-2.364c1.898-1.438,3.652-3.1,5.435-4.677
			c3.989-3.53,7.804-7.268,11.546-11.057c7.16-7.25,14.364-15.102,18.95-24.289c-1.854-3.087-3.709-6.175-5.563-9.263
			c0.086,0.589,0.164,1.18,0.235,1.771c0.069-1.185,0.138-2.369,0.206-3.553c-12.758,17.029-20.012,38.89-25.943,59.079
			c-5.788,19.697-11.065,41.725-9.748,62.426c0.232,3.652,1.337,7.549,3.438,10.584c1.685,2.434,3.161,1.804,3.175-1.031
			c0.108-21.458,4.234-42.434,10.264-62.991c3.349-11.417,7.502-22.613,12.424-33.444c2.216-4.874,4.671-9.64,7.311-14.297
			c1.228-2.166,2.564-4.266,3.838-6.404c1.281-2.15,0.916-3.997,0.568-6.405c-0.131-0.903-4.145-12.153-5.563-9.263
			c-4.348,8.858-11.087,16.475-17.753,23.653c-3.555,3.828-7.271,7.504-11.044,11.116c-3.402,3.259-6.484,6.838-9.647,10.126
			C203.026,67.079,207.049,76.645,208.491,75.641L208.491,75.641z"/>
	</g>
	<g>
		<path fill="none" d="M288.384,42.143c-24.54-30.362-52.989,34.938-53.854,72.707c0,19.878,9.518,37.77,28.549,25.842
			c23.358-13.915,43.237-95.296,19.643-102.887"/>
		<path style="fill:#FFFFFF;" d="M288.293,38.143c-4.26-5.691-9.769-10.767-17.359-10.105c-6.946,0.605-12.519,6.651-16.558,11.769
			c-12.161,15.405-18.639,36.268-21.795,55.369c-1.761,10.653-1.91,21.272,0.64,31.819c2.239,9.26,6.944,21.495,16.791,24.953
			c7.841,2.753,16.351-2.518,21.743-7.846c5.353-5.288,9.05-12.438,12.193-19.179c7.841-16.812,12.109-35.354,12.787-53.861
			c0.322-8.791-0.829-17.901-4.028-26.127c-2.092-5.38-5.435-11.551-11.419-13.209c-2.518-0.698,0.056,10.97,2.867,12.157
			c1.783,0.753,3.801,2.3,4.481,3.449c1.053,1.774-0.418-1.152,0.417,0.807c-0.655-1.538,0.17,0.622,0.223,0.795
			c-0.488-1.594,0.154,0.81,0.181,0.932c-0.155-0.712,0.204,1.76,0.238,2.083c0.792,7.587-0.307,15.416-1.687,22.865
			c-3.122,16.853-8.746,34.41-18.684,48.542c-4.518,6.425-10.689,11.794-18.709,13.022c-10.517,1.61-12.582-8.84-12.71-16.653
			c-0.161-9.852,2.292-20.069,4.88-29.502c2.781-10.134,6.604-20.051,11.675-29.264c7.007-12.73,20.957-28.535,34.589-14.113
			c1.198,1.268,1.634-0.416,1.611-1.415C290.606,43.022,289.749,40.089,288.293,38.143L288.293,38.143z"/>
	</g>
</g>
</svg>
