<?xml version="1.0" encoding="UTF-8" standalone="no"?>
<svg
   xmlns:dc="http://purl.org/dc/elements/1.1/"
   xmlns:cc="http://creativecommons.org/ns#"
   xmlns:rdf="http://www.w3.org/1999/02/22-rdf-syntax-ns#"
   xmlns:svg="http://www.w3.org/2000/svg"
   xmlns="http://www.w3.org/2000/svg"
   width="64.293747mm"
   height="63.766647mm"
   viewBox="0 0 64.293747 63.766647"
   version="1.1"
   id="svg8">
  <defs
     id="defs2" />
  <metadata
     id="metadata5">
    <rdf:RDF>
      <cc:Work
         rdf:about="">
        <dc:format>image/svg+xml</dc:format>
        <dc:type
           rdf:resource="http://purl.org/dc/dcmitype/StillImage" />
        <dc:title></dc:title>
      </cc:Work>
    </rdf:RDF>
  </metadata>
  <g
     transform="translate(-27.650562,-17.310529)"
     id="layer1"
     style="display:inline">
    <path
       style="display:inline;fill:#FFF;stroke-width:0.264583"
       d="m 58.79507,80.607791 c -0.23261,-0.25703 -0.55146,-1.27193 -0.70856,-2.25532 -0.38784,-2.42781 -1.09891,-4.22526 -2.73223,-6.90667 C 51.47038,65.06968 44.467531,58.11364 38.052098,54.259273 c -2.367182,-1.422194 -4.700152,-2.428751 -7.375837,-3.1823 -2.288633,-0.644544 -3.025699,-1.135753 -3.025699,-2.016443 0,-0.854337 0.70155,-1.326854 2.739544,-1.84518 6.088638,-1.548527 13.478847,-6.579029 19.381952,-13.193259 4.499752,-5.041815 7.047952,-9.354486 8.094212,-13.698973 0.31141,-1.293122 0.67954,-2.499959 0.81806,-2.68186 0.13853,-0.181901 0.65126,-0.330729 1.13941,-0.330729 1.08575,0 1.5624,0.65515 1.79102,2.461733 0.0885,0.699109 0.51944,2.166609 0.9577,3.261111 1.7797,4.444595 4.7621,8.588905 9.78113,13.59174 5.93349,5.914353 11.50757,9.386539 17.1583,10.688188 1.98779,0.457888 2.43242,0.777272 2.43242,1.747229 0,1.018844 -0.49742,1.335148 -3.15684,2.007407 -5.72434,1.447022 -12.05766,5.638754 -17.9669,11.891463 -5.66715,5.996571 -8.3229,10.662141 -9.43533,16.575861 -0.27021,1.43647 -1.7182,2.03605 -2.59017,1.07253 z"
       id="path24" />
  </g>
</svg>
